<svg height="354" viewBox="0 0 479 354" width="479" xmlns="http://www.w3.org/2000/svg"><g fill="#fff" fill-rule="evenodd" transform="translate(.94)"><path d="m145.126 135.382v-8.165c0-17.588-.209-35.594-1.256-55.694h-22.194c-7.328 0-13.818.42-20.728 5.235l5.026-16.541h106.361c-5.233 8.165-11.934 10.678-22.612 10.678l-25.543.209c-.839 21.985-1.048 41.457-1.048 59.045 0 38.316 0 58.624 5.236 64.277h-28.475c5.024-5.235 5.233-24.078 5.233-59.044"/><path d="m192.658 145.014c0 28.475 12.352 43.968 30.568 43.968 16.54 0 24.707-13.609 24.707-41.037 0-25.125-12.144-41.665-28.686-41.665-16.959 0-26.589 12.982-26.589 38.734zm72.233-2.513c0 33.919-18.633 54.438-46.271 54.438-27.428 0-42.922-17.169-42.922-47.319 0-31.615 19.891-51.087 47.109-51.087 26.8 0 42.084 16.541 42.084 43.968zm11.148 19.472c0-10.678-.211-23.451-.211-39.362 0-15.075.211-27.638.211-37.898 0-19.262-.838-20.519-6.492-24.496l21.358-3.142v82.286c19.471-13.609 28.893-26.173 28.893-32.663 0-2.302-.628-4.188-1.675-5.862h21.146l-27.009 28.894c-2.304 2.302-4.606 4.606-7.955 7.327 25.543 32.873 37.268 54.647 44.386 57.369h-21.774l-30.779-46.481c-1.675-2.722-3.14-4.187-4.606-4.187-.209 0-.418.209-.627.209v23.868c0 15.075.418 23.451 4.395 26.591h-23.869c3.979-2.513 4.608-13.191 4.608-32.453m84.171 5.862v-31.824c0-20.937-.209-32.453-4.397-35.175 7.328-.21 14.029-.837 20.519-2.303-.836 7.329-1.045 26.589-1.045 57.786v11.935c0 14.238.418 23.032 4.395 26.172h-23.869c3.979-3.14 4.397-11.516 4.397-26.591zm1.107-99.973 1.281-.803c3.986-2.497 9.244-1.255 11.689 2.763l.003.005c2.407 3.954 1.178 9.109-2.753 11.553l-1.284.798c-3.936 2.447-9.11 1.261-11.587-2.656-2.497-3.95-1.309-9.178 2.651-11.66zm41.865 77.152c0 28.475 12.353 43.968 30.568 43.968 16.54 0 24.707-13.609 24.707-41.037 0-25.125-12.144-41.665-28.686-41.665-16.958 0-26.589 12.982-26.589 38.734zm72.234-2.513c0 33.919-18.634 54.438-46.272 54.438-27.427 0-42.922-17.169-42.922-47.319 0-31.615 19.892-51.087 47.11-51.087 26.8 0 42.084 16.541 42.084 43.968z"/><path d="m16.799 36.483h-5.101v-32h-11.698v-4.483h28.496v4.483h-11.697z"/><path d="m35.4 0h5.103v15.252h18.447v-15.252h5.154v36.483h-5.154v-16.696h-18.447v16.696h-5.103z"/><path d="m80.129 31.948h19.066v4.535h-24.168v-36.483h23.395v4.483h-18.293v10.924h17.211v4.38h-17.211z"/><path d="m128.103 31.948h16.282v4.535h-21.385v-36.483h5.103z"/><path d="m151.394 36.483h5.102v-36.483h-5.102z"/><path d="m172.522 36.483h-5.102v-36.483h22.776v4.483h-17.674v11.336h16.541v4.38h-16.541z"/><path d="m203.853 31.948h19.065v4.535h-24.168v-36.483h23.395v4.483h-18.292v10.924h17.21v4.38h-17.21z"/><path d="m252.752 23.034h13.655l-6.801-17.108zm-5.461 13.449h-5.669l15.819-36.483h4.638l15.665 36.483h-5.771l-3.711-8.966h-17.313z"/><path d="m310.208 29.165h.104v-29.165h5.101v36.483h-6.441l-19.272-29.785h-.103v29.785h-5.102v-36.483h6.648z"/><path d="m331.439 32h6.39c2.198 0 4.233-.31 6.105-.928 1.873-.619 3.487-1.511 4.845-2.679 1.356-1.168 2.413-2.611 3.168-4.329.755-1.717 1.133-3.659 1.133-5.823 0-2.267-.378-4.259-1.133-5.978-.755-1.716-1.812-3.15-3.168-4.302-1.358-1.15-2.972-2.026-4.845-2.628-1.872-.601-3.907-.902-6.105-.902h-6.39zm-5.103-32h12.522c2.337 0 4.673.343 7.009 1.03 2.335.688 4.448 1.77 6.338 3.247 1.889 1.477 3.418 3.366 4.587 5.668 1.167 2.302 1.752 5.068 1.752 8.296 0 3.126-.585 5.831-1.752 8.116-1.169 2.285-2.698 4.174-4.587 5.668-1.89 1.494-4.003 2.612-6.338 3.35-2.336.739-4.672 1.108-7.009 1.108h-12.522zm62.249 23.034h13.655l-6.802-17.108zm-5.461 13.449h-5.669l15.819-36.483h4.638l15.665 36.483h-5.771l-3.711-8.966h-17.313zm42.304-20.509h5.874c1.202 0 2.32-.103 3.351-.31 1.029-.206 1.93-.541 2.705-1.004.772-.464 1.382-1.064 1.828-1.803.447-.74.67-1.658.67-2.758 0-1.099-.223-2.017-.67-2.756-.446-.738-1.04-1.332-1.777-1.778-.739-.446-1.607-.765-2.603-.954-.997-.188-2.044-.283-3.143-.283h-6.235zm0 20.509h-5.102v-36.483h11.697c1.753 0 3.418.18 4.999.541 1.58.361 2.963.936 4.148 1.726 1.186.791 2.121 1.83 2.809 3.118.686 1.288 1.031 2.86 1.031 4.714 0 2.68-.826 4.844-2.474 6.494-1.649 1.648-3.78 2.697-6.389 3.142l10.201 16.748h-6.183l-9.275-16.232h-5.462z"/><path d="m466.188 36.483h-5.101v-32h-11.697v-4.483h28.496v4.483h-11.698z"/><path d="m78.884 285.636c-7.183 11.913-19.971 18.57-36.264 18.57-25.401 0-35.737-12.089-35.737-37.49 0-9.286.175-16.118.175-20.848 0-33.11 0-51.33-4.379-56.059h23.824c-4.379 4.029-4.554 23.824-4.554 60.789 0 28.556 2.628 44.147 27.328 44.147 23.125 0 28.731-15.941 28.731-48.877 0-33.46 0-51.33-4.379-56.059h24c-4.73 4.729-4.555 22.599-4.555 56.059 0 33.461-.175 51.506 4.555 56.235h-19.27zm41.696-39.242c1.928 0 5.607.35 11.737.35h2.278c12.438 0 16.994-.175 16.994-5.955 0-6.833-5.957-12.965-14.366-12.965-9.636 0-16.993 7.533-18.219 18.57zm44.322 38.715c0 8.41-12.262 19.097-28.029 19.097-20.673 0-34.513-15.593-34.513-40.818 0-25.928 14.716-41.519 36.439-41.519 16.644 0 27.329 9.984 27.329 23.124 0 6.832-8.233 6.832-31.183 6.832-5.079 0-10.861.176-16.992-.352-.877 2.979-1.227 6.308-1.227 9.987 0 20.497 10.336 31.709 25.752 31.709 8.234 0 15.767-3.328 22.424-10.161z"/><path d="m218.416 230.277c0-2.278-.526-4.554-1.576-6.482h18.217c-7.883 8.758-14.013 30.307-26.102 60.614-18.218 45.9-31.533 68.849-53.782 68.849-9.284 0-15.066-4.556-15.066-8.585 0-2.802 2.804-3.152 8.934-3.152 3.329 0 5.782.175 7.708.175 9.636 0 15.066-.702 20.673-7.708 9.811-12.089 14.015-24.702 14.015-31.185 0-2.276-3.679-21.898-15.066-55.709-4.731-14.013-7.533-21.546-11.037-22.949l12.088-1.401h1.576c5.081 0 8.935 21.899 22.073 67.447 12.615-33.636 17.345-53.784 17.345-59.914m30.219 52.206c0 6.832 5.43 11.387 13.664 11.387 11.212 0 15.943-6.833 15.943-21.549v-12.262c-18.92 7.358-29.607 12.087-29.607 22.424zm29.957 7.007c-4.729 9.635-12.439 14.716-22.249 14.716-12.614 0-22.073-8.585-22.073-18.395 0-11.562 10.861-16.993 28.906-24.877 12.788-5.607 15.591-7.358 15.591-17.519 0-11.212-4.379-15.941-14.716-15.941-4.904 0-8.408 1.576-10.686 4.729-2.628 3.504-3.329 11.562-10.337 11.562-4.029 0-6.48-2.451-6.48-6.48 0-8.235 11.387-15.416 33.284-15.416 15.593 0 21.723 4.904 21.723 16.817 0 5.782-.875 16.818-.875 34.161 0 16.994 1.927 26.803 5.957 29.256l-15.769 1.051c-1.4-4.029-2.101-8.584-2.276-13.664zm28.336-9.636v-22.248c0-19.446-.175-29.432-3.679-32.058l15.942-1.753c.527 2.628.877 5.255.877 7.708v1.753c6.831-7.533 15.416-11.387 24.35-11.387 8.583 0 14.19 4.204 17.169 12.612 7.708-8.408 15.241-12.612 24.175-12.612 8.408 0 14.891 4.204 17.519 12.437 1.576 4.905 1.751 14.366 1.751 29.082v21.021c0 8.935.175 14.716 3.679 17.694h-16.992c.875-15.591.875-30.307.875-43.797v-2.276c0-15.592-.35-24.877-13.84-24.877-5.43 0-9.634 2.103-12.963 6.482-3.329 4.204-3.504 12.788-3.504 26.803v19.095c0 10.337.701 15.942 3.679 18.57h-19.795c3.328-2.628 3.503-9.461 3.503-21.198v-32.233c0-12.089-3.854-17.519-13.84-17.519-5.256 0-9.461 2.103-12.789 6.482-3.327 4.029-3.679 11.912-3.679 25.05 0 6.133.177 12.615.177 20.848 0 10.337.7 15.942 3.678 18.57h-19.972c3.329-2.628 3.679-9.636 3.679-22.249m121.487 2.629c0 6.832 5.43 11.387 13.663 11.387 11.212 0 15.944-6.833 15.944-21.549v-12.262c-18.92 7.358-29.607 12.087-29.607 22.424zm29.957 7.007c-4.73 9.635-12.44 14.716-22.249 14.716-12.614 0-22.073-8.585-22.073-18.395 0-11.562 10.861-16.993 28.906-24.877 12.788-5.607 15.591-7.358 15.591-17.519 0-11.212-4.379-15.941-14.716-15.941-4.904 0-8.408 1.576-10.686 4.729-2.629 3.504-3.329 11.562-10.337 11.562-4.029 0-6.48-2.451-6.48-6.48 0-8.235 11.387-15.416 33.283-15.416 15.593 0 21.724 4.904 21.724 16.817 0 5.782-.876 16.818-.876 34.161 0 16.994 1.928 26.803 5.957 29.256l-15.768 1.051c-1.401-4.029-2.101-8.584-2.276-13.664zm-423.074-211.189c0-1.992-.327-3.874-.98-5.644-.652-1.768-1.58-3.322-2.781-4.662-1.204-1.34-2.654-2.396-4.354-3.168-1.701-.775-3.616-1.16-5.747-1.16-2.095 0-3.992.385-5.693 1.16-1.701.772-3.144 1.828-4.328 3.168-1.187 1.34-2.106 2.894-2.758 4.662-.653 1.77-.978 3.652-.978 5.644 0 2.026.325 3.934.978 5.72.652 1.786 1.58 3.342 2.782 4.662 1.203 1.325 2.646 2.363 4.329 3.119 1.683.755 3.573 1.134 5.668 1.134s4.001-.379 5.72-1.134c1.719-.756 3.177-1.794 4.381-3.119 1.201-1.32 2.129-2.876 2.781-4.662.653-1.786.98-3.694.98-5.72zm5.513 0c0 2.817-.488 5.402-1.468 7.755-.979 2.353-2.328 4.38-4.045 6.08-1.719 1.701-3.761 3.024-6.132 3.968s-4.947 1.418-7.73 1.418-5.35-.474-7.703-1.418c-2.354-.944-4.389-2.267-6.105-3.968-1.719-1.7-3.059-3.727-4.021-6.08s-1.443-4.938-1.443-7.755c0-2.852.481-5.454 1.443-7.808.962-2.351 2.302-4.361 4.021-6.029 1.716-1.665 3.751-2.961 6.105-3.89 2.353-.928 4.92-1.391 7.703-1.391s5.359.463 7.73 1.391c2.371.929 4.413 2.225 6.132 3.89 1.717 1.668 3.066 3.678 4.045 6.029.98 2.354 1.468 4.956 1.468 7.808z"/><path d="m54.931 96.594h-5.103v-36.483h22.777v4.482h-17.674v11.337h16.54v4.38h-16.54z"/></g></svg>