<svg xmlns="http://www.w3.org/2000/svg" viewbox="0 0 848 176" width="848" height="176"><g fill="#FFFFFE" fill-rule="evenodd"><path d="M40.917 70.981v-7.192c0-15.494-.184-31.355-1.107-49.062H20.259c-6.455 0-12.172.37-18.259 4.611l4.427-14.57h93.695c-4.61 7.192-10.513 9.406-19.919 9.406l-22.502.184c-.738 19.367-.922 36.52-.922 52.013 0 33.753 0 51.642 4.611 56.623H36.307c4.426-4.612 4.61-21.211 4.61-52.013"/><path d="M82.788 79.466c0 25.084 10.882 38.732 26.927 38.732 14.571 0 21.765-11.99 21.765-36.15 0-22.133-10.697-36.703-25.269-36.703-14.939 0-23.423 11.435-23.423 34.12m63.631-2.213c0 29.88-16.414 47.955-40.761 47.955-24.161 0-37.811-15.125-37.811-41.683 0-27.851 17.523-45.003 41.5-45.003 23.608 0 37.072 14.57 37.072 38.73m9.82 17.154c0-9.406-.186-20.658-.186-34.674 0-13.279.186-24.347.186-33.384 0-16.969-.738-18.076-5.719-21.579L169.334 2v72.486c17.153-11.989 25.452-23.056 25.452-28.773 0-2.028-.552-3.689-1.475-5.164h18.628l-23.792 25.453c-2.03 2.028-4.058 4.058-7.009 6.454 22.502 28.959 32.831 48.14 39.1 50.537h-19.18l-27.114-40.945c-1.475-2.398-2.766-3.69-4.057-3.69-.184 0-.369.185-.553.185v21.026c0 13.28.369 20.658 3.872 23.424H152.18c3.505-2.213 4.059-11.62 4.059-28.588m74.147 5.164V71.535c0-18.444-.184-28.589-3.873-30.987 6.455-.184 12.358-.737 18.075-2.028-.737 6.456-.921 23.423-.921 50.904v10.513c0 12.543.368 20.29 3.872 23.056h-21.026c3.505-2.766 3.873-10.145 3.873-23.424m.975-88.067l1.129-.708a7.433 7.433 0 0 1 10.296 2.434l.003.004a7.434 7.434 0 0 1-2.425 10.178l-1.131.703a7.434 7.434 0 0 1-7.872-12.611m36.88 67.964c0 25.084 10.881 38.732 26.927 38.732 14.571 0 21.765-11.99 21.765-36.15 0-22.133-10.697-36.703-25.269-36.703-14.939 0-23.423 11.435-23.423 34.12m63.631-2.213c0 29.88-16.414 47.955-40.761 47.955-24.161 0-37.811-15.125-37.811-41.683 0-27.851 17.523-45.003 41.5-45.003 23.608 0 37.072 14.57 37.072 38.73m116.871 29.386c-7.183 11.912-19.971 18.57-36.264 18.57-25.401 0-35.737-12.089-35.737-37.49 0-9.286.175-16.118.175-20.848 0-33.11 0-51.33-4.379-56.06h23.824c-4.379 4.03-4.554 23.825-4.554 60.79 0 28.556 2.628 44.147 27.328 44.147 23.125 0 28.731-15.942 28.731-48.877 0-33.461 0-51.33-4.379-56.06h24c-4.73 4.73-4.555 22.599-4.555 56.06s-.175 51.505 4.555 56.235h-19.27l.525-16.467zm41.696-39.242c1.928 0 5.607.35 11.737.35h2.278c12.438 0 16.994-.175 16.994-5.955 0-6.833-5.957-12.965-14.365-12.965-9.636 0-16.994 7.533-18.22 18.57h1.576zm44.322 38.716c0 8.41-12.262 19.096-28.029 19.096-20.672 0-34.513-15.593-34.513-40.819 0-25.927 14.716-41.518 36.44-41.518 16.643 0 27.328 9.984 27.328 23.124 0 6.833-8.233 6.833-31.182 6.833-5.08 0-10.862.175-16.993-.352-.877 2.978-1.227 6.306-1.227 9.986 0 20.498 10.336 31.71 25.753 31.71 8.233 0 15.766-3.33 22.423-10.163v2.103z"/><path d="M588.274 51.278c0-2.278-.525-4.554-1.576-6.482h18.218c-7.883 8.758-14.014 30.307-26.103 60.614-18.218 45.9-31.533 68.849-53.781 68.849-9.284 0-15.066-4.556-15.066-8.585 0-2.802 2.803-3.152 8.933-3.152 3.329 0 5.782.175 7.709.175 9.636 0 15.066-.702 20.672-7.708 9.811-12.09 14.016-24.702 14.016-31.185 0-2.276-3.679-21.898-15.066-55.709-4.732-14.014-7.533-21.547-11.037-22.949l12.087-1.401h1.576c5.082 0 8.936 21.899 22.074 67.447 12.614-33.636 17.344-53.784 17.344-59.914m30.22 52.206c0 6.833 5.43 11.387 13.663 11.387 11.212 0 15.944-6.834 15.944-21.548V81.06c-18.92 7.358-29.607 12.087-29.607 22.424m29.957 7.008c-4.73 9.633-12.44 14.715-22.249 14.715-12.614 0-22.074-8.585-22.074-18.394 0-11.563 10.862-16.995 28.907-24.877 12.787-5.608 15.591-7.359 15.591-17.521 0-11.21-4.379-15.94-14.716-15.94-4.905 0-8.408 1.576-10.686 4.73-2.629 3.502-3.329 11.562-10.337 11.562-4.029 0-6.48-2.453-6.48-6.482 0-8.234 11.387-15.415 33.283-15.415 15.593 0 21.724 4.905 21.724 16.817 0 5.782-.876 16.819-.876 34.16 0 16.995 1.928 26.803 5.957 29.257l-15.768 1.05c-1.401-4.028-2.101-8.584-2.276-13.662m28.336-9.637V78.606c0-19.445-.175-29.431-3.679-32.058l15.942-1.753c.527 2.629.877 5.255.877 7.708v1.753c6.831-7.533 15.416-11.387 24.35-11.387 8.583 0 14.19 4.205 17.169 12.613 7.708-8.408 15.241-12.613 24.175-12.613 8.408 0 14.891 4.205 17.519 12.438 1.576 4.905 1.751 14.365 1.751 29.081v21.021c0 8.936.175 14.716 3.679 17.695h-16.992c.875-15.592.875-30.307.875-43.797V77.03c0-15.591-.35-24.877-13.84-24.877-5.43 0-9.634 2.103-12.963 6.483-3.329 4.204-3.504 12.787-3.504 26.803v19.095c0 10.336.701 15.941 3.679 18.57H716.03c3.328-2.629 3.503-9.46 3.503-21.198V69.672c0-12.089-3.854-17.519-13.84-17.519-5.256 0-9.461 2.103-12.789 6.483-3.327 4.029-3.679 11.912-3.679 25.05 0 6.132.177 12.615.177 20.848 0 10.336.7 15.941 3.678 18.57h-19.972c3.329-2.629 3.679-9.636 3.679-22.249m121.487 2.629c0 6.833 5.43 11.387 13.663 11.387 11.212 0 15.944-6.834 15.944-21.548V81.06c-18.92 7.358-29.607 12.087-29.607 22.424m29.957 7.008c-4.73 9.633-12.44 14.715-22.249 14.715-12.614 0-22.074-8.585-22.074-18.394 0-11.563 10.862-16.995 28.907-24.877 12.787-5.608 15.591-7.359 15.591-17.521 0-11.21-4.379-15.94-14.716-15.94-4.904 0-8.408 1.576-10.686 4.73-2.629 3.502-3.329 11.562-10.337 11.562-4.029 0-6.48-2.453-6.48-6.482 0-8.234 11.387-15.415 33.283-15.415 15.593 0 21.724 4.905 21.724 16.817 0 5.782-.876 16.819-.876 34.16 0 16.995 1.928 26.803 5.957 29.257l-15.768 1.05c-1.401-4.028-2.101-8.584-2.276-13.662"/></g></svg>